<?xml version="1.0" ?><svg id="Layer_1" style="enable-background:new 0 0 512 512;" version="1.1" viewBox="0 0 512 512" xml:space="preserve" xmlns="http://www.w3.org/2000/svg" xmlns:xlink="http://www.w3.org/1999/xlink"><g><path d="M13.5,188.8c5,69.9,178.9,285.9,246,305.7c31.5,9.3,64.7,14,97.3,10c22.6-2.8,50-12.1,71-27.1l-115.4-142   c-6.4,5.4-11.2,12.4-13,20.7c-2.6,11.7-0.3,26.5-10,33.6c-7,5.1-16.7,3.2-25,0.7c-40.7-12.4-144.7-141.7-148.1-184.1   c-0.7-8.6-0.5-18.5,6-24.3c9-8,22.9-2.5,34.9-2.6c8.1,0,15.7-3,22.2-7.7L64.2,29.9C46,47.1,31.9,70.9,24.6,91.6   C13.6,122.6,11.2,156.1,13.5,188.8z" id="XMLID_6_"/><path d="M191.4,79.1c-8.4-22.8-19.9-45.6-39.5-60.1c-27.6-20.4-55-14.6-77.7,2.5l114.7,141.2   c5.2-6.5,9-14.4,10.8-22.5C204.1,119.8,198.6,98.6,191.4,79.1z" id="XMLID_5_"/><path d="M347,323.1c-8,0-16.1,1.9-23.4,5.3L438,469.3c20.2-18.4,30.6-43.3,17-73.6c-10-22.2-29.8-38.3-50.3-51.4   C387.3,333.1,367.8,323.1,347,323.1z" id="XMLID_4_"/><g><path d="M324.5,13.3c-0.7-0.1-1.3-0.1-2-0.2l-4.1,39.8c0.7,0.1,1.3,0.1,2,0.2c84.9,8.8,146.9,85,138.1,169.9    l39.7,4.1C509.3,120.1,431.5,24.4,324.5,13.3z" id="XMLID_3_"/><path d="M316.3,92.8c-0.7-0.1-1.3-0.1-2-0.2l-4.1,39.7c0.7,0.1,1.3,0.1,2,0.2c41.1,4.2,71.1,41.1,66.8,82.2    l39.7,4.1C425.3,155.9,379.3,99.3,316.3,92.8z" id="XMLID_2_"/><path d="M269.7,203.5c-2,19.2,12,36.4,31.2,38.4c19.2,2,36.4-12,38.4-31.2c2-19.2-12-36.4-31.2-38.4    C288.9,170.3,271.7,184.3,269.7,203.5z" id="XMLID_1_"/></g></g></svg>